<svg width="21" height="20" viewBox="0 0 21 20" fill="none" xmlns="http://www.w3.org/2000/svg">
<path d="M5.41255 1.72C5.48255 1.66 5.55255 1.6 5.60255 1.56C7.16255 0.55 8.98255 0 10.9826 0C12.8626 0 14.6226 0.5 16.1226 1.42C16.2326 1.5 16.5226 1.69 16.6826 1.88C15.2326 0.28 10.9826 3.7 10.9826 3.7C9.48255 2.57 8.15255 1.8 7.14255 1.5C6.29255 1.29 5.71255 1.5 5.44255 1.7L5.41255 1.72ZM18.3226 3.21C18.2726 3.16 18.2226 3.11 18.1826 3.06C17.8226 2.66 17.3626 2.56 16.9826 2.59C16.5926 2.71 14.8826 3.32 12.7826 5.31C12.7826 5.31 15.1526 7.61 16.6026 9.96C18.0526 12.31 18.9126 14.16 18.3826 16.73C19.9826 14.95 20.9826 12.59 20.9826 10C20.9826 7.38 19.9826 5 18.3226 3.21ZM14.7126 10.96C14.0626 10.24 13.1126 9.21 11.8426 7.95C11.5726 7.68 11.2826 7.4 10.9826 7.1C10.9826 7.1 10.5126 7.56 9.91255 8.17C9.14255 8.94 8.15255 9.95 7.59255 10.54C6.61255 11.59 3.79255 14.89 3.63255 16.74C3.63255 16.74 2.98255 15.28 4.38255 11.89C5.28255 9.68 7.98255 6.36 9.13255 5.28C9.13255 5.28 8.10255 4.14 6.80255 3.35L6.75255 3.32C6.12255 2.95 5.44255 2.66 4.78255 2.62C4.11255 2.67 3.69255 3.16 3.69255 3.16C1.94884 5.01024 0.979209 7.45758 0.982553 10C0.982553 12.6522 2.03612 15.1957 3.91148 17.0711C4.84007 17.9997 5.94246 18.7362 7.15572 19.2388C8.36897 19.7413 9.66933 20 10.9826 20C13.9126 20 16.5526 18.74 18.3826 16.73C18.3826 16.73 18.1726 15.4 16.8226 13.5C16.5126 13.07 15.3526 11.69 14.7126 10.96Z" fill="white"/>
</svg>
