<svg width="21" height="20" viewBox="0 0 21 20" fill="none" xmlns="http://www.w3.org/2000/svg">
<path d="M12.7957 20H15.8588C18.6713 20 20.9825 17.6888 20.9825 14.8763V5.12375C20.9825 2.31125 18.6713 0 15.8588 0H12.7338C12.6719 0 12.6069 0.061875 12.6069 0.12375V19.8762C12.6069 19.9381 12.6688 20 12.7957 20ZM16.6075 9.00062C17.7338 9.00062 18.6063 9.93813 18.6063 10.9994C18.6063 12.1256 17.6688 12.9981 16.6075 12.9981C15.4813 12.9981 14.6088 12.1256 14.6088 10.9994C14.5438 9.87625 15.4813 9.00062 16.6075 9.00062ZM10.4813 0H6.10629C3.29379 0 0.982544 2.31125 0.982544 5.12375V14.8763C0.982544 17.6888 3.29379 20 6.10629 20H10.4813C10.5432 20 10.6082 19.9381 10.6082 19.8762V0.12375C10.6082 0.061875 10.5463 0 10.4813 0ZM9.04567 18.3756H6.10629C5.64654 18.3764 5.19116 18.2864 4.76626 18.1108C4.34137 17.9352 3.9553 17.6774 3.63021 17.3523C3.30512 17.0272 3.04738 16.6412 2.87178 16.2163C2.69619 15.7914 2.60618 15.336 2.60692 14.8763V5.12375C2.60618 4.664 2.69619 4.20862 2.87178 3.78372C3.04738 3.35882 3.30512 2.97276 3.63021 2.64767C3.9553 2.32257 4.34137 2.06484 4.76626 1.88924C5.19116 1.71364 5.64654 1.62363 6.10629 1.62437H8.98379L9.04567 18.3756ZM4.10754 5.99937C4.10754 7.06063 4.92129 7.87437 5.98254 7.87437C7.04379 7.87437 7.85754 7.06063 7.85754 5.99937C7.85754 4.93812 7.04379 4.12437 5.98254 4.12437C4.92129 4.12437 4.10754 4.93812 4.10754 5.99937Z" fill="white"/>
</svg>
