<svg width="24" height="24" viewBox="0 0 24 24" fill="none" xmlns="http://www.w3.org/2000/svg">
<path d="M19.4163 20.2501L18.9634 19.1126C18.7344 18.5355 18.3785 18.0179 17.923 17.596L17.8402 17.5197C17.1233 16.8545 16.1812 16.4844 15.2029 16.4844H8.71467C7.73638 16.4844 6.79432 16.8545 6.07613 17.5184L5.99331 17.596C5.53781 18.0179 5.18325 18.5355 4.95291 19.1126L4.5 20.2501" stroke="white" stroke-width="2.25" stroke-linecap="round" stroke-linejoin="round"/>
<path d="M15.1614 3.57655C16.9301 5.34529 16.9301 8.21296 15.1614 9.98169C13.3926 11.7504 10.525 11.7504 8.75624 9.98169C6.9875 8.21296 6.9875 5.34529 8.75624 3.57655C10.525 1.80782 13.3926 1.80782 15.1614 3.57655" stroke="white" stroke-width="2.25" stroke-linecap="round" stroke-linejoin="round"/>
</svg>
